<svg width="40" height="40" viewBox="0 0 40 40" fill="none" xmlns="http://www.w3.org/2000/svg">
<circle cx="20" cy="20" r="20" fill="#7955FE"/>
<path fill-rule="evenodd" clip-rule="evenodd" d="M20.5 12H19.5C19.2239 12 19 11.7761 19 11.5V9.5C19 9.22386 19.2239 9 19.5 9H20.5C20.7761 9 21 9.22386 21 9.5V11.5C21 11.7761 20.7761 12 20.5 12ZM14.2446 18.3338C14.9857 15.77 17.3312 14.0038 20 14C22.6688 14.0038 25.0143 15.77 25.7554 18.3338C26.4965 20.8976 25.4551 23.6428 23.2 25.07C22.761 25.3422 22.4957 25.8235 22.5 26.34V26.5C22.5 26.7761 22.2761 27 22 27H18C17.7239 27 17.5 26.7761 17.5 26.5V26.34C17.5004 25.8245 17.2361 25.3449 16.8 25.07C14.5449 23.6428 13.5035 20.8976 14.2446 18.3338ZM16 20C16 22.2091 17.7909 24 20 24C21.0609 24 22.0783 23.5786 22.8284 22.8284C23.5786 22.0783 24 21.0609 24 20C24 17.7909 22.2091 16 20 16C17.7909 16 16 17.7909 16 20ZM18 29.59C18.0011 29.8523 18.1053 30.1037 18.29 30.29L18.71 30.71C18.8963 30.8947 19.1477 30.9989 19.41 31H20.59C20.8523 30.9989 21.1037 30.8947 21.29 30.71L21.71 30.29C21.8947 30.1037 21.9989 29.8523 22 29.59V29H18V29.59ZM28.13 12.58L27.42 11.87C27.3293 11.7733 27.2026 11.7185 27.07 11.7185C26.9374 11.7185 26.8107 11.7733 26.72 11.87L25.3 13.28C25.1082 13.4778 25.1082 13.7922 25.3 13.99L26 14.7C26.1978 14.8918 26.5122 14.8918 26.71 14.7L28.12 13.28C28.218 13.1907 28.2746 13.0648 28.2765 12.9322C28.2784 12.7996 28.2254 12.6721 28.13 12.58ZM13.28 11.87L14.7 13.28C14.8983 13.479 14.8983 13.801 14.7 14L14 14.7C13.801 14.8983 13.479 14.8983 13.28 14.7L11.87 13.28C11.7733 13.1893 11.7185 13.0626 11.7185 12.93C11.7185 12.7974 11.7733 12.6707 11.87 12.58L12.58 11.87C12.6707 11.7733 12.7974 11.7185 12.93 11.7185C13.0626 11.7185 13.1893 11.7733 13.28 11.87ZM30.5 19H28.5C28.2239 19 28 19.2239 28 19.5V20.5C28 20.7761 28.2239 21 28.5 21H30.5C30.7761 21 31 20.7761 31 20.5V19.5C31 19.2239 30.7761 19 30.5 19ZM9.5 19H11.5C11.7761 19 12 19.2239 12 19.5V20.5C12 20.7761 11.7761 21 11.5 21H9.5C9.22386 21 9 20.7761 9 20.5V19.5C9 19.2239 9.22386 19 9.5 19Z" fill="white"/>
</svg>
