<svg width="60" height="60" viewBox="0 0 60 60" fill="none" xmlns="http://www.w3.org/2000/svg">
<path opacity="0.2" d="M0 0H50C55.5228 0 60 4.47715 60 10V60H10C4.47715 60 0 55.5228 0 50V0Z" fill="#2CECC6"/>
<path fill-rule="evenodd" clip-rule="evenodd" d="M29.85 37.65L35.15 32.35C35.8535 31.6474 36.2491 30.6942 36.25 29.7V18.75C36.25 17.3693 35.1307 16.25 33.75 16.25H20C18.6193 16.25 17.5 17.3693 17.5 18.75V36.25C17.5 37.6307 18.6193 38.75 20 38.75H27.2C28.1942 38.7491 29.1474 38.3535 29.85 37.65ZM26.25 30V36.25H20V18.75H33.75V28.75H27.5C26.8096 28.75 26.25 29.3096 26.25 30ZM36.25 41.25C37.6307 41.25 38.75 40.1307 38.75 38.75V21.25C40.1307 21.25 41.25 22.3693 41.25 23.75V38.75C41.25 41.5114 39.0114 43.75 36.25 43.75H25C23.6193 43.75 22.5 42.6307 22.5 41.25H36.25Z" fill="#2CECC6"/>
</svg>
