<svg width="60" height="60" viewBox="0 0 60 60" fill="none" xmlns="http://www.w3.org/2000/svg">
<path opacity="0.2" d="M0 0H50C55.5228 0 60 4.47715 60 10V60H10C4.47715 60 0 55.5228 0 50V0Z" fill="#7855FE"/>
<path fill-rule="evenodd" clip-rule="evenodd" d="M38.7705 29.9822C38.7705 32.7397 36.5299 34.975 33.7659 34.975H22.5057C21.503 34.956 20.5343 35.338 19.8157 36.036L17.3135 38.5325C17.1988 38.6512 17.0409 38.7187 16.8756 38.7197C16.5301 38.7197 16.25 38.4403 16.25 38.0956V22.4929C16.25 19.7354 18.4906 17.5 21.2545 17.5H33.7659C36.5299 17.5 38.7705 19.7354 38.7705 22.4929V29.9822ZM18.7523 22.4928V33.7268C19.8351 32.9166 21.1522 32.4786 22.5057 32.4786H33.766C35.1479 32.4786 36.2682 31.3609 36.2682 29.9822V22.4928C36.2682 21.1141 35.1479 19.9964 33.766 19.9964H21.2546C19.8726 19.9964 18.7523 21.1141 18.7523 22.4928ZM31.8892 27.4857H33.1403C33.4858 27.4857 33.7659 27.2063 33.7659 26.8616V25.6134C33.7659 25.2687 33.4858 24.9893 33.1403 24.9893H31.8892C31.5437 24.9893 31.2636 25.2687 31.2636 25.6134V26.8616C31.2636 27.2063 31.5437 27.4857 31.8892 27.4857ZM28.1357 27.4857H26.8846C26.5391 27.4857 26.259 27.2063 26.259 26.8616V25.6134C26.259 25.2687 26.5391 24.9893 26.8846 24.9893H28.1357C28.4812 24.9893 28.7613 25.2687 28.7613 25.6134V26.8616C28.7613 27.2063 28.4812 27.4857 28.1357 27.4857ZM23.7569 26.8616V25.6134C23.7569 25.2687 23.4768 24.9893 23.1313 24.9893H21.8802C21.5347 24.9893 21.2546 25.2687 21.2546 25.6134V26.8616C21.2546 27.2063 21.5347 27.4857 21.8802 27.4857H23.1313C23.4768 27.4857 23.7569 27.2063 23.7569 26.8616ZM41.2728 32.4786V22.4929C42.645 22.5066 43.7501 23.6203 43.7501 24.9893V43.1259C43.7501 43.4706 43.47 43.75 43.1245 43.75C42.9592 43.7491 42.8013 43.6815 42.6866 43.5628L40.1843 41.0664C39.478 40.3608 38.5189 39.9655 37.5194 39.9679H23.7569C22.3749 39.9679 21.2546 38.8502 21.2546 37.4715H36.2683C39.0322 37.4715 41.2728 35.2361 41.2728 32.4786Z" fill="#7A55FE"/>
</svg>
