<svg width="175" height="165" viewBox="0 0 175 165" fill="none" xmlns="http://www.w3.org/2000/svg">
<path d="M4.0158 5.40605C3.81657 4.66248 4.49698 3.98207 5.24055 4.18131L10.2596 5.52617C11.0032 5.72541 11.2523 6.65487 10.7079 7.1992L7.0337 10.8734C6.48937 11.4178 5.55991 11.1687 5.36067 10.4252L4.0158 5.40605Z" fill="#E5DFFF"/>
<path d="M44.0163 5.40605C43.8171 4.66248 44.4975 3.98207 45.241 4.18131L50.2601 5.52617C51.0037 5.72541 51.2528 6.65487 50.7084 7.1992L47.0342 10.8734C46.4899 11.4178 45.5604 11.1687 45.3612 10.4252L44.0163 5.40605Z" fill="#E5DFFF"/>
<path d="M84.0163 5.40605C83.8171 4.66248 84.4975 3.98207 85.241 4.18131L90.2601 5.52617C91.0037 5.72541 91.2528 6.65487 90.7084 7.1992L87.0342 10.8734C86.4899 11.4178 85.5604 11.1687 85.3612 10.4252L84.0163 5.40605Z" fill="#E5DFFF"/>
<path d="M124.016 5.40605C123.817 4.66248 124.497 3.98207 125.241 4.18131L130.26 5.52617C131.003 5.72541 131.252 6.65487 130.708 7.1992L127.034 10.8734C126.489 11.4178 125.56 11.1687 125.361 10.4252L124.016 5.40605Z" fill="#E5DFFF"/>
<path d="M164.016 5.40605C163.817 4.66248 164.497 3.98207 165.241 4.18131L170.26 5.52617C171.004 5.72541 171.253 6.65487 170.708 7.1992L167.034 10.8734C166.49 11.4178 165.56 11.1687 165.361 10.4252L164.016 5.40605Z" fill="#E5DFFF"/>
<path d="M4.01629 35.4061C3.81705 34.6625 4.49747 33.9821 5.24104 34.1813L10.2601 35.5262C11.0037 35.7254 11.2528 36.6549 10.7084 37.1992L7.03419 40.8734C6.48986 41.4178 5.56039 41.1687 5.36116 40.4252L4.01629 35.4061Z" fill="#E5DFFF"/>
<path d="M44.0158 35.4061C43.8166 34.6625 44.497 33.9821 45.2405 34.1813L50.2596 35.5262C51.0032 35.7254 51.2523 36.6549 50.7079 37.1992L47.0337 40.8734C46.4894 41.4178 45.5599 41.1687 45.3607 40.4252L44.0158 35.4061Z" fill="#E5DFFF"/>
<path d="M84.0163 35.4061C83.8171 34.6625 84.4975 33.9821 85.241 34.1813L90.2601 35.5262C91.0037 35.7254 91.2528 36.6549 90.7084 37.1992L87.0342 40.8734C86.4899 41.4178 85.5604 41.1687 85.3612 40.4252L84.0163 35.4061Z" fill="#E5DFFF"/>
<path d="M124.016 35.4061C123.817 34.6625 124.497 33.9821 125.241 34.1813L130.26 35.5262C131.004 35.7254 131.253 36.6549 130.708 37.1992L127.034 40.8734C126.49 41.4178 125.56 41.1687 125.361 40.4252L124.016 35.4061Z" fill="#E5DFFF"/>
<path d="M164.016 35.4061C163.817 34.6625 164.497 33.9821 165.241 34.1813L170.26 35.5262C171.004 35.7254 171.253 36.6549 170.708 37.1992L167.034 40.8734C166.49 41.4178 165.56 41.1687 165.361 40.4252L164.016 35.4061Z" fill="#E5DFFF"/>
<path d="M4.01629 65.4061C3.81705 64.6625 4.49747 63.9821 5.24104 64.1813L10.2601 65.5262C11.0037 65.7254 11.2528 66.6549 10.7084 67.1992L7.03419 70.8734C6.48986 71.4178 5.56039 71.1687 5.36116 70.4252L4.01629 65.4061Z" fill="#E5DFFF"/>
<path d="M44.0163 65.4061C43.8171 64.6625 44.4975 63.9821 45.241 64.1813L50.2601 65.5262C51.0037 65.7254 51.2528 66.6549 50.7084 67.1992L47.0342 70.8734C46.4899 71.4178 45.5604 71.1687 45.3612 70.4252L44.0163 65.4061Z" fill="#E5DFFF"/>
<path d="M84.0163 65.4061C83.8171 64.6625 84.4975 63.9821 85.241 64.1813L90.2601 65.5262C91.0037 65.7254 91.2528 66.6549 90.7084 67.1992L87.0342 70.8734C86.4899 71.4178 85.5604 71.1687 85.3612 70.4252L84.0163 65.4061Z" fill="#E5DFFF"/>
<path d="M124.016 65.4061C123.817 64.6625 124.497 63.9821 125.241 64.1813L130.26 65.5262C131.004 65.7254 131.253 66.6549 130.708 67.1992L127.034 70.8734C126.49 71.4178 125.56 71.1687 125.361 70.4252L124.016 65.4061Z" fill="#E5DFFF"/>
<path d="M164.016 65.4061C163.817 64.6625 164.497 63.9821 165.241 64.1813L170.26 65.5262C171.004 65.7254 171.253 66.6549 170.708 67.1992L167.034 70.8734C166.49 71.4178 165.56 71.1687 165.361 70.4252L164.016 65.4061Z" fill="#E5DFFF"/>
<path d="M4.01507 95.4061C3.81583 94.6625 4.49625 93.9821 5.23982 94.1813L10.2589 95.5262C11.0025 95.7254 11.2515 96.6549 10.7072 97.1992L7.03297 100.873C6.48864 101.418 5.55917 101.169 5.35993 100.425L4.01507 95.4061Z" fill="#E5DFFF"/>
<path d="M44.0163 95.4061C43.8171 94.6625 44.4975 93.9821 45.241 94.1813L50.2601 95.5262C51.0037 95.7254 51.2528 96.6549 50.7084 97.1992L47.0342 100.873C46.4899 101.418 45.5604 101.169 45.3612 100.425L44.0163 95.4061Z" fill="#E5DFFF"/>
<path d="M84.0163 95.4061C83.8171 94.6625 84.4975 93.9821 85.241 94.1813L90.2601 95.5262C91.0037 95.7254 91.2528 96.6549 90.7084 97.1992L87.0342 100.873C86.4899 101.418 85.5604 101.169 85.3612 100.425L84.0163 95.4061Z" fill="#E5DFFF"/>
<path d="M124.016 95.4061C123.817 94.6625 124.497 93.9821 125.241 94.1813L130.26 95.5262C131.004 95.7254 131.253 96.6549 130.708 97.1992L127.034 100.873C126.49 101.418 125.56 101.169 125.361 100.425L124.016 95.4061Z" fill="#E5DFFF"/>
<path d="M164.016 95.4061C163.817 94.6625 164.497 93.9821 165.241 94.1813L170.26 95.5262C171.003 95.7254 171.252 96.6549 170.708 97.1992L167.034 100.873C166.489 101.418 165.56 101.169 165.361 100.425L164.016 95.4061Z" fill="#E5DFFF"/>
<path d="M4.01629 125.406C3.81705 124.662 4.49747 123.982 5.24104 124.181L10.2601 125.526C11.0037 125.725 11.2528 126.655 10.7084 127.199L7.03419 130.873C6.48986 131.418 5.56039 131.169 5.36116 130.425L4.01629 125.406Z" fill="#E5DFFF"/>
<path d="M44.0163 125.406C43.8171 124.662 44.4975 123.982 45.241 124.181L50.2601 125.526C51.0037 125.725 51.2528 126.655 50.7084 127.199L47.0342 130.873C46.4899 131.418 45.5604 131.169 45.3612 130.425L44.0163 125.406Z" fill="#E5DFFF"/>
<path d="M84.0163 125.406C83.8171 124.662 84.4975 123.982 85.241 124.181L90.2601 125.526C91.0037 125.725 91.2528 126.655 90.7084 127.199L87.0342 130.873C86.4899 131.418 85.5604 131.169 85.3612 130.425L84.0163 125.406Z" fill="#E5DFFF"/>
<path d="M124.016 125.406C123.817 124.662 124.497 123.982 125.241 124.181L130.26 125.526C131.003 125.725 131.252 126.655 130.708 127.199L127.034 130.873C126.489 131.418 125.56 131.169 125.361 130.425L124.016 125.406Z" fill="#E5DFFF"/>
<path d="M164.016 125.406C163.817 124.662 164.497 123.982 165.241 124.181L170.26 125.526C171.004 125.725 171.253 126.655 170.708 127.199L167.034 130.873C166.49 131.418 165.56 131.169 165.361 130.425L164.016 125.406Z" fill="#E5DFFF"/>
<path d="M4.01629 155.406C3.81705 154.662 4.49747 153.982 5.24104 154.181L10.2601 155.526C11.0037 155.725 11.2528 156.655 10.7084 157.199L7.03419 160.873C6.48986 161.418 5.56039 161.169 5.36116 160.425L4.01629 155.406Z" fill="#E5DFFF"/>
<path d="M44.0163 155.406C43.8171 154.662 44.4975 153.982 45.241 154.181L50.2601 155.526C51.0037 155.725 51.2528 156.655 50.7084 157.199L47.0342 160.873C46.4899 161.418 45.5604 161.169 45.3612 160.425L44.0163 155.406Z" fill="#E5DFFF"/>
<path d="M84.0163 155.406C83.8171 154.662 84.4975 153.982 85.241 154.181L90.2601 155.526C91.0037 155.725 91.2528 156.655 90.7084 157.199L87.0342 160.873C86.4899 161.418 85.5604 161.169 85.3612 160.425L84.0163 155.406Z" fill="#E5DFFF"/>
<path d="M124.016 155.406C123.817 154.662 124.497 153.982 125.241 154.181L130.26 155.526C131.003 155.725 131.252 156.655 130.708 157.199L127.034 160.873C126.489 161.418 125.56 161.169 125.361 160.425L124.016 155.406Z" fill="#E5DFFF"/>
<path d="M164.016 155.406C163.817 154.662 164.497 153.982 165.241 154.181L170.26 155.526C171.004 155.725 171.253 156.655 170.708 157.199L167.034 160.873C166.49 161.418 165.56 161.169 165.361 160.425L164.016 155.406Z" fill="#E5DFFF"/>
</svg>
