<svg width="24" height="24" viewBox="0 0 24 24" fill="none" xmlns="http://www.w3.org/2000/svg">
<path d="M16.4989 6H13.4989C12.9466 6 12.4989 6.44772 12.4989 7V10H16.4989C16.6126 9.99748 16.7205 10.0504 16.7881 10.1419C16.8557 10.2334 16.8747 10.352 16.8389 10.46L16.0989 12.66C16.0307 12.8619 15.842 12.9984 15.6289 13H12.4989V20.5C12.4989 20.7761 12.275 21 11.9989 21H9.4989C9.22276 21 8.9989 20.7761 8.9989 20.5V13H7.4989C7.22276 13 6.9989 12.7761 6.9989 12.5V10.5C6.9989 10.2239 7.22276 10 7.4989 10H8.9989V7C8.9989 4.79086 10.7898 3 12.9989 3H16.4989C16.775 3 16.9989 3.22386 16.9989 3.5V5.5C16.9989 5.77614 16.775 6 16.4989 6Z" fill="#11223F"/>
</svg>
