<svg width="24" height="24" viewBox="0 0 24 24" fill="none" xmlns="http://www.w3.org/2000/svg">
<path fill-rule="evenodd" clip-rule="evenodd" d="M15.999 3H7.99896C5.23754 3 2.99896 5.23858 2.99896 8V16C2.99896 18.7614 5.23754 21 7.99896 21H15.999C18.7604 21 20.999 18.7614 20.999 16V8C20.999 5.23858 18.7604 3 15.999 3ZM19.2489 16C19.2434 17.7926 17.7915 19.2445 15.9989 19.25H7.99889C6.20624 19.2445 4.75438 17.7926 4.74889 16V7.99998C4.75438 6.20733 6.20624 4.75547 7.99889 4.74998H15.9989C17.7915 4.75547 19.2434 6.20733 19.2489 7.99998V16ZM16.749 8.24998C17.3012 8.24998 17.749 7.80227 17.749 7.24998C17.749 6.6977 17.3012 6.24998 16.749 6.24998C16.1967 6.24998 15.749 6.6977 15.749 7.24998C15.749 7.80227 16.1967 8.24998 16.749 8.24998ZM11.999 7.5C9.51368 7.5 7.49896 9.51472 7.49896 12C7.49896 14.4853 9.51368 16.5 11.999 16.5C14.4842 16.5 16.499 14.4853 16.499 12C16.5016 10.8057 16.0284 9.65957 15.1839 8.81508C14.3394 7.97059 13.1932 7.49734 11.999 7.5ZM9.24889 12C9.24889 13.5188 10.4801 14.75 11.9989 14.75C13.5177 14.75 14.7489 13.5188 14.7489 12C14.7489 10.4812 13.5177 9.24998 11.9989 9.24998C10.4801 9.24998 9.24889 10.4812 9.24889 12Z" fill="#11223F"/>
</svg>
