<svg width="215" height="126" viewBox="0 0 215 126" fill="none" xmlns="http://www.w3.org/2000/svg">
<path d="M40.4176 104.429C39.5796 105.267 38.5701 105.686 37.3893 105.686C36.2084 105.686 35.199 105.267 34.361 104.429C33.5229 103.591 33.1039 102.581 33.1039 101.4C33.1039 100.219 33.5039 99.21 34.3038 98.372C35.1419 97.534 36.1703 97.1149 37.3893 97.1149C38.5701 97.1149 39.5796 97.534 40.4176 98.372C41.2556 99.21 41.6746 100.219 41.6746 101.4C41.6746 102.581 41.2556 103.591 40.4176 104.429ZM74.6938 105L71.894 96.9435H54.8668L52.0671 105H44.9248L59.4379 65.0033H67.3229L81.7789 105H74.6938ZM57.0381 90.7726H69.7227L63.3804 72.717L57.0381 90.7726ZM90.8875 84.316C90.8875 85.2683 91.4017 86.0302 92.4302 86.6015C93.4968 87.1348 94.7729 87.611 96.2585 88.03C97.7822 88.4109 99.3058 88.868 100.83 89.4013C102.353 89.9346 103.629 90.8488 104.658 92.1439C105.724 93.401 106.258 95.0008 106.258 96.9435C106.258 99.6862 105.191 101.838 103.058 103.4C100.963 104.962 98.3155 105.743 95.1157 105.743C92.2969 105.743 89.8781 105.152 87.8592 103.972C85.8403 102.791 84.3738 101.153 83.4595 99.0576L88.7734 95.9722C89.7638 98.7148 91.8779 100.086 95.1157 100.086C98.3535 100.086 99.9725 99.0195 99.9725 96.8864C99.9725 95.9722 99.4392 95.2294 98.3726 94.658C97.3441 94.0866 96.068 93.6105 94.5443 93.2296C93.0587 92.8105 91.5541 92.3344 90.0304 91.8011C88.5067 91.2678 87.2116 90.3917 86.145 89.1728C85.1166 87.9157 84.6023 86.3349 84.6023 84.4303C84.6023 81.8019 85.5927 79.6878 87.5735 78.088C89.5924 76.4881 92.0874 75.6882 95.0586 75.6882C97.4203 75.6882 99.5154 76.2215 101.344 77.288C103.21 78.3165 104.639 79.764 105.629 81.6305L100.43 84.5446C99.4392 82.3733 97.6488 81.2877 95.0586 81.2877C93.8777 81.2877 92.8873 81.5543 92.0874 82.0876C91.2875 82.5828 90.8875 83.3256 90.8875 84.316ZM136.602 105H129.232L117.518 91.8011V105H111.347V65.0033H117.518V89.0585L128.603 76.431H136.145L123.575 90.4298L136.602 105ZM161.092 76.431H167.263V105H161.092V100.886C158.769 104.124 155.436 105.743 151.093 105.743C147.17 105.743 143.818 104.295 141.037 101.4C138.256 98.4672 136.866 94.9056 136.866 90.7155C136.866 86.4873 138.256 82.9257 141.037 80.0307C143.818 77.1357 147.17 75.6882 151.093 75.6882C155.436 75.6882 158.769 77.288 161.092 80.4878V76.431ZM145.608 97.2864C147.322 99.0005 149.474 99.8576 152.065 99.8576C154.655 99.8576 156.807 99.0005 158.521 97.2864C160.235 95.5341 161.092 93.3438 161.092 90.7155C161.092 88.0871 160.235 85.9159 158.521 84.2017C156.807 82.4495 154.655 81.5734 152.065 81.5734C149.474 81.5734 147.322 82.4495 145.608 84.2017C143.894 85.9159 143.037 88.0871 143.037 90.7155C143.037 93.3438 143.894 95.5341 145.608 97.2864ZM174.456 105V63.2892H180.627V105H174.456Z" fill="#11223F"/>
<path d="M86.3398 15.4219C90.1888 8.75519 99.8113 8.75521 103.66 15.4219L116.651 37.9219C120.5 44.5886 115.688 52.9219 107.99 52.9219H82.0096C74.3116 52.9219 69.5004 44.5885 73.3494 37.9219L86.3398 15.4219Z" fill="#7955FE"/>
<path d="M110.375 15.4219C114.224 8.75519 123.846 8.75521 127.695 15.4219L140.686 37.9219C144.535 44.5886 139.724 52.9219 132.026 52.9219H106.045C98.3468 52.9219 93.5355 44.5885 97.3845 37.9219L110.375 15.4219Z" fill="#F1EEFF"/>
</svg>
