<svg width="274" height="72" viewBox="0 0 274 72" fill="none" xmlns="http://www.w3.org/2000/svg">
<path d="M99.4528 50.4286C98.6147 51.2666 97.6053 51.6857 96.4244 51.6857C95.2436 51.6857 94.2342 51.2666 93.3961 50.4286C92.5581 49.5906 92.1391 48.5812 92.1391 47.4003C92.1391 46.2194 92.5391 45.21 93.339 44.372C94.177 43.534 95.2055 43.1149 96.4244 43.1149C97.6053 43.1149 98.6147 43.534 99.4528 44.372C100.291 45.21 100.71 46.2194 100.71 47.4003C100.71 48.5812 100.291 49.5906 99.4528 50.4286ZM133.729 51L130.929 42.9435H113.902L111.102 51H103.96L118.473 11.0033H126.358L140.814 51H133.729ZM116.073 36.7726H128.758L122.416 18.717L116.073 36.7726ZM149.923 30.316C149.923 31.2683 150.437 32.0302 151.465 32.6015C152.532 33.1348 153.808 33.611 155.294 34.03C156.817 34.4109 158.341 34.868 159.865 35.4013C161.388 35.9346 162.664 36.8488 163.693 38.1439C164.76 39.401 165.293 41.0008 165.293 42.9435C165.293 45.6862 164.226 47.8384 162.093 49.4001C159.998 50.9619 157.351 51.7428 154.151 51.7428C151.332 51.7428 148.913 51.1524 146.894 49.9715C144.875 48.7907 143.409 47.1527 142.495 45.0576L147.809 41.9722C148.799 44.7148 150.913 46.0861 154.151 46.0861C157.389 46.0861 159.008 45.0195 159.008 42.8864C159.008 41.9722 158.474 41.2294 157.408 40.658C156.379 40.0866 155.103 39.6105 153.579 39.2296C152.094 38.8105 150.589 38.3344 149.066 37.8011C147.542 37.2678 146.247 36.3917 145.18 35.1728C144.152 33.9157 143.637 32.3349 143.637 30.4303C143.637 27.8019 144.628 25.6878 146.609 24.088C148.628 22.4881 151.123 21.6882 154.094 21.6882C156.455 21.6882 158.551 22.2215 160.379 23.288C162.245 24.3165 163.674 25.764 164.664 27.6305L159.465 30.5446C158.474 28.3733 156.684 27.2877 154.094 27.2877C152.913 27.2877 151.922 27.5543 151.123 28.0876C150.323 28.5828 149.923 29.3256 149.923 30.316ZM195.638 51H188.267L176.553 37.8011V51H170.383V11.0033H176.553V35.0585L187.638 22.431H195.18L182.61 36.4298L195.638 51ZM220.128 22.431H226.298V51H220.128V46.8861C217.804 50.1239 214.471 51.7428 210.128 51.7428C206.205 51.7428 202.853 50.2953 200.072 47.4003C197.291 44.4672 195.901 40.9056 195.901 36.7155C195.901 32.4873 197.291 28.9257 200.072 26.0307C202.853 23.1357 206.205 21.6882 210.128 21.6882C214.471 21.6882 217.804 23.288 220.128 26.4878V22.431ZM204.643 43.2864C206.357 45.0005 208.509 45.8576 211.1 45.8576C213.69 45.8576 215.842 45.0005 217.556 43.2864C219.27 41.5341 220.128 39.3438 220.128 36.7155C220.128 34.0871 219.27 31.9159 217.556 30.2017C215.842 28.4495 213.69 27.5734 211.1 27.5734C208.509 27.5734 206.357 28.4495 204.643 30.2017C202.929 31.9159 202.072 34.0871 202.072 36.7155C202.072 39.3438 202.929 41.5341 204.643 43.2864ZM233.491 51V9.2892H239.662V51H233.491Z" fill="#11223F"/>
<path d="M26.3398 16.4219C30.1888 9.75519 39.8113 9.75521 43.6603 16.4219L56.6506 38.9219C60.4996 45.5886 55.6884 53.9219 47.9904 53.9219H22.0096C14.3116 53.9219 9.50036 45.5885 13.3494 38.9219L26.3398 16.4219Z" fill="#7955FE"/>
<path d="M50.3749 16.4219C54.2239 9.75519 63.8464 9.75521 67.6954 16.4219L80.6858 38.9219C84.5348 45.5886 79.7235 53.9219 72.0255 53.9219H46.0448C38.3468 53.9219 33.5355 45.5885 37.3845 38.9219L50.3749 16.4219Z" fill="#F1EEFF"/>
</svg>
