<svg width="63" height="19" viewBox="0 0 63 19" fill="none" xmlns="http://www.w3.org/2000/svg">
<path d="M3.47681 17.76C3.12481 18.112 2.70081 18.288 2.20481 18.288C1.70881 18.288 1.28481 18.112 0.932813 17.76C0.580813 17.408 0.404813 16.984 0.404813 16.488C0.404813 15.992 0.572813 15.568 0.908813 15.216C1.26081 14.864 1.69281 14.688 2.20481 14.688C2.70081 14.688 3.12481 14.864 3.47681 15.216C3.82881 15.568 4.00481 15.992 4.00481 16.488C4.00481 16.984 3.82881 17.408 3.47681 17.76ZM17.874 18L16.698 14.616H9.546L8.37 18H5.37L11.466 1.2H14.778L20.85 18H17.874ZM10.458 12.024H15.786L13.122 4.44L10.458 12.024ZM24.6759 9.312C24.6759 9.712 24.8919 10.032 25.3239 10.272C25.7719 10.496 26.3079 10.696 26.9319 10.872C27.5719 11.032 28.2119 11.224 28.8519 11.448C29.4919 11.672 30.0279 12.056 30.4599 12.6C30.9079 13.128 31.1319 13.8 31.1319 14.616C31.1319 15.768 30.6839 16.672 29.7879 17.328C28.9079 17.984 27.7959 18.312 26.4519 18.312C25.2679 18.312 24.2519 18.064 23.4039 17.568C22.5559 17.072 21.9399 16.384 21.5559 15.504L23.7879 14.208C24.2039 15.36 25.0919 15.936 26.4519 15.936C27.8119 15.936 28.4919 15.488 28.4919 14.592C28.4919 14.208 28.2679 13.896 27.8199 13.656C27.3879 13.416 26.8519 13.216 26.2119 13.056C25.5879 12.88 24.9559 12.68 24.3159 12.456C23.6759 12.232 23.1319 11.864 22.6839 11.352C22.2519 10.824 22.0359 10.16 22.0359 9.36C22.0359 8.256 22.4519 7.368 23.2839 6.696C24.1319 6.024 25.1799 5.688 26.4279 5.688C27.4199 5.688 28.2999 5.912 29.0679 6.36C29.8519 6.792 30.4519 7.4 30.8679 8.184L28.6839 9.408C28.2679 8.496 27.5159 8.04 26.4279 8.04C25.9319 8.04 25.5159 8.152 25.1799 8.376C24.8439 8.584 24.6759 8.896 24.6759 9.312ZM43.8778 18H40.7818L35.8618 12.456V18H33.2698V1.2H35.8618V11.304L40.5178 6H43.6858L38.4058 11.88L43.8778 18ZM54.1644 6H56.7564V18H54.1644V16.272C53.1884 17.632 51.7884 18.312 49.9644 18.312C48.3164 18.312 46.9084 17.704 45.7404 16.488C44.5724 15.256 43.9884 13.76 43.9884 12C43.9884 10.224 44.5724 8.728 45.7404 7.512C46.9084 6.296 48.3164 5.688 49.9644 5.688C51.7884 5.688 53.1884 6.36 54.1644 7.704V6ZM47.6604 14.76C48.3804 15.48 49.2844 15.84 50.3724 15.84C51.4604 15.84 52.3644 15.48 53.0844 14.76C53.8044 14.024 54.1644 13.104 54.1644 12C54.1644 10.896 53.8044 9.984 53.0844 9.264C52.3644 8.528 51.4604 8.16 50.3724 8.16C49.2844 8.16 48.3804 8.528 47.6604 9.264C46.9404 9.984 46.5804 10.896 46.5804 12C46.5804 13.104 46.9404 14.024 47.6604 14.76ZM59.7776 18V0.48H62.3696V18H59.7776Z" fill="#11223F"/>
</svg>
