<svg width="60" height="60" viewBox="0 0 60 60" fill="none" xmlns="http://www.w3.org/2000/svg">
<path opacity="0.2" d="M0 0H50C55.5228 0 60 4.47715 60 10V60H10C4.47715 60 0 55.5228 0 50V0Z" fill="#FB9300"/>
<path fill-rule="evenodd" clip-rule="evenodd" d="M33.4927 17.5001C32.9922 17.5004 32.4961 17.5936 32.0297 17.7751L31.4545 17.9876C30.9907 18.1614 30.4994 18.2503 30.004 18.2501C29.5087 18.2503 29.0174 18.1614 28.5536 17.9876L27.9784 17.7751C25.9553 16.9943 23.6748 17.9336 22.7892 19.9126L22.5016 20.4751C22.089 21.3696 21.3708 22.0877 20.4759 22.5001L19.9133 22.7501C17.9385 23.6401 17.0007 25.9152 17.7751 27.9376L17.9876 28.5126C18.3505 29.4452 18.3505 30.48 17.9876 31.4126L17.7751 31.9876C17.0007 34.01 17.9385 36.2851 19.9133 37.1751L20.4759 37.4251C21.3838 37.856 22.1038 38.6025 22.5016 39.5251L22.7517 40.0876C23.6372 42.0666 25.9177 43.006 27.9409 42.2251L28.516 42.0126C29.4514 41.6627 30.4817 41.6627 31.417 42.0126L31.9922 42.2251C34.0153 43.006 36.2958 42.0666 37.1814 40.0876L37.4314 39.5251C37.8625 38.6175 38.6092 37.8978 39.5321 37.5001L40.0948 37.2501C42.0696 36.3601 43.0073 34.085 42.233 32.0626L42.0204 31.4876C41.6575 30.555 41.6575 29.5202 42.0204 28.5876L42.233 28.0126C43.0073 25.9902 42.0696 23.7151 40.0948 22.8251L39.5321 22.5001C38.6373 22.0877 37.919 21.3696 37.5065 20.4751L37.2564 19.9126C36.596 18.4352 35.1238 17.4884 33.5052 17.5001H33.4927ZM33.4926 20.0001C34.1131 19.9957 34.6774 20.3588 34.9306 20.9251L35.1932 21.5001C35.8578 22.9777 37.0411 24.1606 38.5192 24.8251L39.0694 25.0626C39.8432 25.4205 40.2048 26.3186 39.8947 27.1126L39.6946 27.6501C39.113 29.1499 39.113 30.8128 39.6946 32.3126L39.9072 32.9251C40.2145 33.7018 39.8565 34.5827 39.0944 34.9251L38.5192 35.1876C37.0411 35.8521 35.8578 37.035 35.1932 38.5126L34.9556 39.0626C34.6992 39.6336 34.1312 40.0008 33.5051 40.0001C33.3001 39.9968 33.0972 39.9587 32.9049 39.8876L32.3672 39.6876C31.6147 39.3922 30.8125 39.2436 30.004 39.2501C29.2129 39.2442 28.428 39.3884 27.6907 39.6751L27.078 39.8876C26.8997 39.9619 26.7085 40.0001 26.5153 40.0001C25.8948 40.0044 25.3305 39.6414 25.0774 39.0751L24.8148 38.5001C24.1501 37.0225 22.9668 35.8396 21.4887 35.1751L20.9385 35.0001C20.1647 34.6422 19.8031 33.7441 20.1133 32.9501L20.3133 32.4126C20.8949 30.9128 20.8949 29.2499 20.3133 27.7501L20.1008 27.1376C19.7934 26.3609 20.1514 25.4799 20.9135 25.1376L21.4887 24.8751C22.9826 24.1979 24.1721 22.9909 24.8273 21.4876L25.0649 20.9376C25.3212 20.3666 25.8893 19.9994 26.5153 20.0001C26.7203 20.0034 26.9233 20.0414 27.1155 20.1126L27.6532 20.3126C28.4019 20.6065 29.1997 20.755 30.004 20.7501C30.795 20.756 31.58 20.6118 32.3172 20.3251L32.9299 20.1126C33.1082 20.0383 33.2994 20.0001 33.4926 20.0001ZM34.343 25.4376C34.3405 25.4376 34.338 25.4376 34.3355 25.4376H34.343ZM34.3243 25.4378C34.3205 25.4377 34.3168 25.4376 34.313 25.4376H34.3355C34.3317 25.4376 34.328 25.4377 34.3243 25.4378ZM34.3243 25.4378C34.4806 25.4415 34.6302 25.5038 34.7431 25.6126L35.4059 26.2751C35.5242 26.3925 35.5908 26.5522 35.5908 26.7189C35.5908 26.8855 35.5242 27.0453 35.4059 27.1626L28.3786 34.1876C28.264 34.3065 28.1061 34.3741 27.9409 34.3751C27.7751 34.3771 27.6162 34.309 27.5033 34.1876L24.5649 31.2251C24.4465 31.1078 24.3799 30.948 24.3799 30.7814C24.3799 30.6147 24.4465 30.455 24.5649 30.3376L25.2276 29.6751C25.341 29.5543 25.4994 29.4857 25.6652 29.4857C25.831 29.4857 25.9894 29.5543 26.1028 29.6751L27.9785 31.5376L33.9054 25.6126C34.0183 25.5038 34.1679 25.4415 34.3243 25.4378Z" fill="#FB9300"/>
</svg>
