<svg width="40" height="40" viewBox="0 0 40 40" fill="none" xmlns="http://www.w3.org/2000/svg">
<circle cx="20" cy="20" r="20" fill="#7955FE"/>
<path fill-rule="evenodd" clip-rule="evenodd" d="M29.9998 15C29.9998 12.7909 28.2089 11 25.9998 11H13.9998C11.7906 11 9.99976 12.7909 9.99976 15V30.5C9.99976 30.7761 10.2236 31 10.4998 31C10.6319 30.9992 10.7581 30.9451 10.8498 30.85L13.8498 27.85C14.4241 27.2908 15.1983 26.9847 15.9998 27H25.9998C28.2089 27 29.9998 25.2091 29.9998 23V15ZM25.9995 25H15.9995C14.6725 24.9976 13.399 25.5228 12.4595 26.46L11.9995 26.88V15C11.9995 13.8954 12.8949 13 13.9995 13H25.9995C27.1041 13 27.9995 13.8954 27.9995 15V23C27.9995 24.1046 27.1041 25 25.9995 25ZM18.9998 20H16.4998C16.2236 20 15.9998 19.7762 15.9998 19.5V18.5C15.9998 18.2239 16.2236 18 16.4998 18H18.9998V15.5C18.9998 15.2239 19.2236 15 19.4998 15H20.4998C20.7759 15 20.9998 15.2239 20.9998 15.5V18H23.4998C23.7759 18 23.9998 18.2239 23.9998 18.5V19.5C23.9998 19.7762 23.7759 20 23.4998 20H20.9998V22.5C20.9998 22.7762 20.7759 23 20.4998 23H19.4998C19.2236 23 18.9998 22.7762 18.9998 22.5V20Z" fill="white"/>
</svg>
