<svg width="40" height="40" viewBox="0 0 40 40" fill="none" xmlns="http://www.w3.org/2000/svg">
<circle cx="20" cy="20" r="20" fill="#7955FE"/>
<path fill-rule="evenodd" clip-rule="evenodd" d="M28.21 22.0741C27.7249 21.6707 27.4581 21.0617 27.49 20.4309V20V19.5691C27.4581 18.9383 27.7249 18.3293 28.21 17.9259L29.01 17.2646C29.3861 16.9534 29.4833 16.4156 29.24 15.992L28.08 13.988C27.9024 13.6799 27.5751 13.4892 27.22 13.487C27.0996 13.485 26.9803 13.5089 26.87 13.5572L25.87 13.9179C25.647 14.0053 25.4094 14.0496 25.17 14.0481C24.7867 14.0472 24.4119 13.9359 24.09 13.7275C23.8549 13.5648 23.6075 13.4207 23.35 13.2966C22.7873 13.0075 22.3942 12.4687 22.29 11.8438L22.12 10.8418C22.0407 10.3517 21.6153 9.9937 21.12 10.0001H18.82C18.3246 9.9937 17.8992 10.3517 17.82 10.8418L17.65 11.8438C17.5544 12.4608 17.1773 12.998 16.63 13.2966C16.3725 13.4207 16.125 13.5648 15.89 13.7275C15.5681 13.9359 15.1932 14.0472 14.81 14.0481C14.5705 14.0496 14.3329 14.0053 14.11 13.9179L13.11 13.5572C12.9997 13.5089 12.8803 13.485 12.76 13.487C12.4048 13.4892 12.0775 13.6799 11.9 13.988L10.76 15.992C10.5189 16.418 10.6204 16.9561 11 17.2646L11.8 17.9259C12.285 18.3293 12.5518 18.9383 12.52 19.5691V20V20.4309C12.5518 21.0617 12.285 21.6707 11.8 22.0741L11 22.7354C10.6204 23.0439 10.5189 23.582 10.76 24.008L11.92 26.012C12.0975 26.3201 12.4248 26.5108 12.78 26.513C12.9003 26.515 13.0197 26.4911 13.13 26.4428L14.13 26.0821C14.3529 25.9947 14.5905 25.9504 14.83 25.9519C15.2132 25.9528 15.5881 26.0641 15.91 26.2725C16.145 26.4352 16.3925 26.5793 16.65 26.7034C17.2127 26.9925 17.6057 27.5313 17.71 28.1562L17.88 29.1582C17.9592 29.6483 18.3846 30.0063 18.88 29.9999H21.18C21.6754 30.0063 22.1007 29.6483 22.18 29.1582L22.35 28.1562C22.4542 27.5313 22.8473 26.9925 23.41 26.7034C23.6675 26.5793 23.9149 26.4352 24.15 26.2725C24.4719 26.0641 24.8467 25.9528 25.23 25.9519C25.4694 25.9504 25.707 25.9947 25.93 26.0821L26.93 26.4428C27.0403 26.4911 27.1596 26.515 27.28 26.513C27.6351 26.5108 27.9624 26.3201 28.14 26.012L29.3 24.008C29.528 23.5679 29.4005 23.0268 29 22.7354L28.21 22.0741ZM20 25.511C16.9624 25.511 14.5 23.0436 14.5 20C14.5 16.9564 16.9624 14.489 20 14.489C23.0375 14.489 25.5 16.9564 25.5 20C25.5 21.4616 24.9205 22.8633 23.889 23.8968C22.8576 24.9304 21.4586 25.511 20 25.511ZM18 20C18 18.8932 18.8954 17.996 20 17.996C21.1045 17.996 22 18.8932 22 20C22 21.1068 21.1045 22.004 20 22.004C18.8954 22.004 18 21.1068 18 20Z" fill="white"/>
</svg>
