<svg width="24" height="24" viewBox="0 0 24 24" fill="none" xmlns="http://www.w3.org/2000/svg">
<path d="M21.969 6.46378C21.4529 7.15213 20.8292 7.75258 20.1218 8.24195C20.1218 8.42177 20.1218 8.60158 20.1218 8.79139C20.1274 12.0568 18.8231 15.1879 16.5011 17.4828C14.1792 19.7777 11.0339 21.0443 7.77034 20.9988C5.88361 21.0051 4.02104 20.5743 2.32853 19.7401C2.23727 19.7003 2.17841 19.61 2.17876 19.5103V19.4005C2.17876 19.257 2.29499 19.1407 2.43837 19.1407C4.29298 19.0796 6.08143 18.4366 7.55067 17.3026C5.87199 17.2688 4.36161 16.2744 3.66652 14.7453C3.63141 14.6617 3.64234 14.5659 3.69536 14.4925C3.74839 14.419 3.83584 14.3785 3.92613 14.3856C4.43632 14.4369 4.9516 14.3894 5.44384 14.2458C3.59072 13.8611 2.1983 12.3227 1.99903 10.4397C1.99194 10.3494 2.03242 10.2619 2.10584 10.2088C2.17926 10.1558 2.275 10.1448 2.35849 10.18C2.85578 10.3994 3.39262 10.515 3.93611 10.5196C2.31234 9.45384 1.61097 7.42672 2.22868 5.58469C2.29244 5.4057 2.44563 5.27347 2.63195 5.2366C2.81827 5.19972 3.01024 5.26365 3.13731 5.40487C5.3285 7.73695 8.33922 9.12662 11.5347 9.28088C11.4528 8.95427 11.4126 8.61862 11.4149 8.28191C11.4447 6.51636 12.5372 4.94357 14.1807 4.29986C15.8242 3.65615 17.6936 4.06893 18.9136 5.34494C19.7452 5.18651 20.5492 4.90716 21.3 4.51579C21.355 4.48145 21.4247 4.48145 21.4797 4.51579C21.514 4.57081 21.514 4.64058 21.4797 4.6956C21.1161 5.52835 20.5017 6.2268 19.7224 6.69355C20.4048 6.6144 21.0753 6.45341 21.7194 6.21404C21.7736 6.17713 21.8449 6.17713 21.8991 6.21404C21.9445 6.23482 21.9785 6.27457 21.9919 6.32269C22.0054 6.37081 21.997 6.42242 21.969 6.46378Z" fill="#11223F"/>
</svg>
